<?xml version="1.0" encoding="UTF-8" standalone="no"?>
<svg
   xmlns:dc="http://purl.org/dc/elements/1.1/"
   xmlns:cc="http://creativecommons.org/ns#"
   xmlns:rdf="http://www.w3.org/1999/02/22-rdf-syntax-ns#"
   xmlns:svg="http://www.w3.org/2000/svg"
   xmlns="http://www.w3.org/2000/svg"
   xmlns:sodipodi="http://sodipodi.sourceforge.net/DTD/sodipodi-0.dtd"
   xmlns:inkscape="http://www.inkscape.org/namespaces/inkscape"
   class=""
   width="64"
   height="64"
   viewBox="0 0 64 64"
   version="1.1"
   id="svg13"
   sodipodi:docname="popmeals.svg"
   style="fill:none"
   inkscape:version="0.92.5 (2060ec1f9f, 2020-04-08)">
  <metadata
     id="metadata19">
    <rdf:RDF>
      <cc:Work
         rdf:about="">
        <dc:format>image/svg+xml</dc:format>
        <dc:type
           rdf:resource="http://purl.org/dc/dcmitype/StillImage" />
        <dc:title></dc:title>
      </cc:Work>
    </rdf:RDF>
  </metadata>
  <defs
     id="defs17" />
  <sodipodi:namedview
     pagecolor="#ffffff"
     bordercolor="#666666"
     borderopacity="1"
     objecttolerance="10"
     gridtolerance="10"
     guidetolerance="10"
     inkscape:pageopacity="0"
     inkscape:pageshadow="2"
     inkscape:window-width="2560"
     inkscape:window-height="1377"
     id="namedview15"
     showgrid="false"
     inkscape:zoom="5.3015873"
     inkscape:cx="31.5"
     inkscape:cy="12.709581"
     inkscape:window-x="0"
     inkscape:window-y="26"
     inkscape:window-maximized="1"
     inkscape:current-layer="svg13" />
  <path
     d="m 34.392,41.754492 c -3.663,0.044 -6.41,-2.358 -7.511,-5.73 -2.071,-6.337 2.625,-14.627 8.392,-14.653 2.17,-0.01 3.975,1.146 4.564,2.949 0.456,1.395 -0.258,0.874 -1.636,1.23 -6.236,1.259 -7.545,7.59 -6.84,10.807 0.33,1.505 0.888,2.532 2.448,2.78 2.11,0.334 4.05,-2.08 4.783,-5.201 0.47,-1.994 0.22,-3.53 -0.11,-4.967 -0.287,-1.255 -0.728,-2.355 0.41,-2.36 1.222,-0.006 2.68,0.92 3.363,3.012 0.703,2.151 0.395,4.832 -0.795,7.151 -1.62,3.157 -3.984,4.945 -7.068,4.982 z"
     id="path2"
     inkscape:connector-curvature="0"
     style="clip-rule:evenodd;fill:#fec700;fill-rule:evenodd" />
  <mask
     id="wmrglmk1da"
     width="63"
     height="39"
     x="0"
     y="0"
     maskUnits="userSpaceOnUse">
    <path
       d="M 0.275,0.216 H 62.78 V 38.893 H 0.275 Z"
       id="path4"
       inkscape:connector-curvature="0"
       style="fill:#ffffff" />
  </mask>
  <g
     mask="url(#wmrglmk1da)"
     id="g9"
     transform="translate(0,11.754492)">
    <path
       d="m 57.867,20.429 c -0.4,1.702 -1.548,3.895 -3.285,4.797 -2.022,1.05 -4.122,-0.605 -4.012,-3.322 0.098,-2.442 0.787,-3.945 1.24,-4.685 1.443,-2.35 4.008,-3.396 5.267,-1.783 1.074,1.377 1.16,3.42 0.79,4.993 z m 4.23,-6.024 c -1.17,-2.494 -3.893,-3.817 -6.58,-3.255 -1.803,0.377 -2.984,1.32 -4.538,3.205 0.121,-0.477 0.367,-1.387 0.442,-1.599 0.326,-0.931 -0.885,-1.24 -1.344,-1.325 -0.635,-0.119 -1.456,0.037 -1.979,0.406 -0.796,0.56 -1.177,1.623 -1.469,2.48 -1.104,3.244 -1.388,6.842 -1.506,10.23 -0.112,3.212 0.213,7.647 1.088,10.776 0.636,2.278 2.588,4.479 5.573,3.185 1.047,-0.454 0.39,-1.616 0,-2.823 -0.449,-1.385 -1.74,-5.771 -1.515,-9.29 1.363,2.328 4.543,3.15 7.277,1.693 2.409,-1.283 4.025,-3.853 4.684,-6.223 0.598,-2.15 0.906,-5.246 -0.133,-7.46 z M 26.05,9.226 C 25.852,6.475 24.263,3.911 21.689,2.192 18.663,0.17 14.838,-0.335 11.456,0.837 6.986,2.134 3.489,4.838 1.608,8.452 c -1.15,2.209 -1.558,4.13 -1.215,5.709 0.366,1.687 1.838,3.931 3.576,4.615 0.386,0.152 0.801,0.083 1.111,-0.186 0.323,-0.28 0.464,-0.716 0.372,-1.132 -0.647,-3.448 1.005,-7.029 2.767,-9.23 1.926,-2.407 6.032,-4.244 8.844,-3.035 3.006,1.293 4.567,4.532 3.976,8.25 -0.257,1.614 -1.334,4.722 -5.66,7.4 -0.226,0.12 -0.66,0.332 -1.29,0.628 0.034,-2.357 0.181,-4.77 0.44,-7.178 0.161,-1.5 0.515,-4.205 1.07,-5.443 C 15.657,8.738 15.705,8.554 15.596,8.3 15.292,7.68 14.789,7.265 14.18,7.13 13.56,6.994 12.916,7.165 12.368,7.612 c -0.921,0.751 -1.211,2.092 -1.625,3.237 -0.79,2.187 -2.654,12.493 -1.235,20.765 0.338,1.972 1.067,3.438 2.247,4.1 0.452,0.253 0.95,0.364 1.476,0.38 0.957,0.028 1.793,-0.353 1.97,-0.457 0.176,-0.104 0.504,-0.415 0.236,-1.138 -0.986,-2.5 -1.357,-5.1 -1.405,-9.885 3.873,-0.9 6.759,-2.62 8.818,-5.258 2.94,-3.766 3.363,-7.586 3.2,-10.13 z"
       id="path7"
       inkscape:connector-curvature="0"
       style="clip-rule:evenodd;fill:#fec700;fill-rule:evenodd" />
  </g>
  <path
     d="m 22.73,49.872492 c -0.148,0 -0.274,-0.07 -0.338,-0.186 -0.054,-0.103 -0.057,-0.171 -0.057,-0.328 v -2.036 l -0.724,1.532 c -0.06,0.132 -0.16,0.282 -0.392,0.282 -0.23,0 -0.332,-0.15 -0.395,-0.28 l -0.728,-1.536 v 2.038 c 0,0.159 -0.002,0.226 -0.055,0.327 -0.064,0.117 -0.19,0.187 -0.338,0.187 -0.148,0 -0.274,-0.07 -0.339,-0.186 -0.053,-0.103 -0.055,-0.171 -0.055,-0.328 v -3.414 c 0,-0.1 0.011,-0.245 0.115,-0.353 0.132,-0.136 0.369,-0.146 0.505,-0.067 0.073,0.044 0.146,0.144 0.186,0.225 l 1.104,2.277 1.098,-2.276 c 0.04,-0.083 0.114,-0.183 0.186,-0.226 0.059,-0.034 0.138,-0.053 0.218,-0.053 0.11,0 0.211,0.042 0.286,0.12 0.105,0.108 0.117,0.253 0.117,0.353 v 3.413 c 0,0.157 -0.002,0.225 -0.056,0.327 -0.065,0.117 -0.19,0.187 -0.338,0.187 z m 4.78,-0.024 H 25.6 c -0.1,0 -0.237,0 -0.35,-0.115 -0.113,-0.114 -0.113,-0.253 -0.113,-0.354 v -3.413 c 0,-0.1 0,-0.24 0.113,-0.354 0.113,-0.116 0.25,-0.116 0.35,-0.116 h 1.91 c 0.141,0 0.214,0.008 0.293,0.051 0.108,0.063 0.17,0.18 0.17,0.313 0,0.132 -0.061,0.249 -0.167,0.31 -0.082,0.046 -0.154,0.053 -0.296,0.053 h -1.585 v 1.068 h 1.288 c 0.142,0 0.214,0.008 0.294,0.051 0.107,0.063 0.17,0.179 0.17,0.313 0,0.133 -0.063,0.25 -0.168,0.31 -0.082,0.045 -0.154,0.053 -0.296,0.053 h -1.288 v 1.103 h 1.585 c 0.141,0 0.214,0.008 0.293,0.052 0.108,0.062 0.17,0.179 0.17,0.311 0,0.134 -0.061,0.25 -0.167,0.312 -0.082,0.044 -0.155,0.052 -0.296,0.052 z m 3.212,-1.544 0.55,-1.518 0.55,1.518 z m 2.248,0.943 -1.268,-3.415 c -0.045,-0.124 -0.083,-0.189 -0.146,-0.25 -0.079,-0.075 -0.17,-0.11 -0.284,-0.11 -0.116,0 -0.207,0.035 -0.284,0.11 -0.064,0.06 -0.1,0.124 -0.146,0.25 l -1.269,3.415 c -0.056,0.15 -0.124,0.338 0.037,0.504 0.12,0.132 0.362,0.161 0.509,0.041 0.077,-0.061 0.108,-0.132 0.162,-0.276 l 0.188,-0.51 h 1.605 l 0.188,0.51 c 0.052,0.14 0.085,0.214 0.162,0.275 0.063,0.053 0.14,0.08 0.222,0.08 0.11,0 0.218,-0.044 0.285,-0.118 0.165,-0.169 0.092,-0.364 0.04,-0.506 z m 4.386,0.601 h -1.88 c -0.1,0 -0.237,0 -0.35,-0.115 -0.114,-0.114 -0.114,-0.252 -0.114,-0.354 v -3.393 c 0,-0.157 0.002,-0.224 0.056,-0.326 0.064,-0.118 0.19,-0.188 0.338,-0.188 0.147,0 0.274,0.07 0.338,0.187 0.054,0.103 0.056,0.17 0.056,0.327 v 3.135 h 1.556 c 0.142,0 0.214,0.008 0.294,0.052 0.108,0.062 0.17,0.179 0.17,0.311 0,0.134 -0.062,0.25 -0.168,0.311 -0.082,0.045 -0.154,0.053 -0.296,0.053 z m 3.461,0.035 c -0.476,0 -0.811,-0.085 -1.156,-0.294 -0.216,-0.13 -0.333,-0.239 -0.333,-0.44 0,-0.094 0.042,-0.196 0.11,-0.265 0.067,-0.067 0.15,-0.101 0.241,-0.101 0.102,0 0.189,0.033 0.313,0.12 0.266,0.185 0.492,0.254 0.837,0.254 0.29,0 0.776,-0.074 0.776,-0.567 0,-0.176 -0.044,-0.295 -0.135,-0.373 -0.093,-0.084 -0.215,-0.13 -0.41,-0.159 l -0.493,-0.07 c -0.358,-0.054 -0.62,-0.169 -0.826,-0.359 -0.22,-0.204 -0.33,-0.494 -0.33,-0.863 0,-0.793 0.575,-1.305 1.464,-1.305 0.396,0 0.652,0.065 1.012,0.256 0.194,0.103 0.297,0.239 0.297,0.393 0,0.09 -0.033,0.175 -0.093,0.247 -0.065,0.078 -0.15,0.119 -0.252,0.119 -0.096,0 -0.216,-0.054 -0.295,-0.103 -0.231,-0.144 -0.412,-0.194 -0.692,-0.194 -0.42,0 -0.671,0.213 -0.671,0.57 0,0.147 0.041,0.256 0.123,0.326 0.086,0.077 0.188,0.135 0.415,0.17 l 0.494,0.077 c 0.388,0.06 0.615,0.153 0.81,0.332 0.242,0.224 0.364,0.533 0.364,0.919 0,0.796 -0.616,1.31 -1.57,1.31 z"
     id="path11"
     inkscape:connector-curvature="0"
     style="clip-rule:evenodd;fill:#fec700;fill-rule:evenodd" />
</svg>
